<?xml version="1.0" ?><svg id="Layer_1" style="enable-background:new 0 0 50 50;" version="1.1" viewBox="0 0 50 50" xml:space="preserve" xmlns="http://www.w3.org/2000/svg" xmlns:xlink="http://www.w3.org/1999/xlink"><style type="text/css">
	.st0{fill:#FF0000;}
</style><path class="st0" d="M45.3839111,23.8070679c-0.0071411-0.3482056-0.0179443-0.7585449-0.0337524-1.2103882  c-0.0147705-0.4203491-0.0340576-0.8773193-0.0591431-1.3549194c-0.0197754-0.3766479-0.0443726-0.7667847-0.0721436-1.1618042  c-0.0304565-0.4332886-0.0651855-0.8709717-0.1069946-1.3070679c-0.0363159-0.3790894-0.0786133-0.7525635-0.1246948-1.1194458  c-0.0536499-0.4269409-0.1137085-0.8406372-0.182373-1.2316895c-0.0639038-0.3640747-0.1353149-0.7050781-0.2138062-1.0205688  c-0.0137939-0.055481-0.0259399-0.1170044-0.0402222-0.1707153c-0.0811157-0.3054199-0.196167-0.5953979-0.3256836-0.8774414  c-0.1280518-0.2787476-0.2792969-0.5430298-0.4498901-0.7942505c-0.18927-0.2786255-0.3948975-0.5449219-0.6304932-0.7835693  c-0.2053833-0.2080078-0.4308472-0.3943481-0.6669312-0.5674438c-0.2770996-0.203186-0.5747681-0.3775635-0.8878784-0.5261841  c-0.2888794-0.137207-0.5866089-0.2583618-0.9006348-0.3435059c-0.0036011-0.0009766-0.006958-0.0026245-0.0105591-0.0036011  c-0.3096924-0.0834961-0.7091675-0.1585083-1.1733398-0.2265015c-0.3334961-0.0488281-0.7029419-0.093689-1.0986938-0.1352539  c-0.4065552-0.0426636-0.84021-0.0817871-1.2966919-0.1173706c-0.3751221-0.0292358-0.7640381-0.0561523-1.163147-0.0809937  c-0.4370728-0.0272217-0.8848267-0.052063-1.3395996-0.0744629c-0.390625-0.0192261-0.7851563-0.0366821-1.1808472-0.0526733  c-0.4560547-0.0184937-0.9122314-0.0349731-1.364502-0.0495605c-0.4085083-0.0131836-0.8122559-0.0249023-1.2089233-0.0352783  c-0.4744873-0.0123901-0.937561-0.0230103-1.3820801-0.0319824c-0.4226685-0.0084839-0.8295288-0.015686-1.2125854-0.0214844  c-0.5119019-0.0078125-0.9806519-0.0133667-1.3965454-0.0175171c-0.5009766-0.0049438-0.9197388-0.0076904-1.2349854-0.0091553  c-0.3436279-0.0015869-0.5668945-0.00177-0.62677-0.00177c-0.0687256,0-0.3516846,0.0002441-0.788147,0.0026245  c-0.3308105,0.00177-0.7523193,0.0048828-1.2440796,0.0100708c-0.4298096,0.0045166-0.911438,0.0107422-1.4331665,0.019104  c-0.4020996,0.0064697-0.8262939,0.0142822-1.2677612,0.0236206c-0.4680786,0.0098877-0.9522705,0.0213623-1.4492188,0.0351563  c-0.4187622,0.0115967-0.8449707,0.0247803-1.2739258,0.0395508c-0.489502,0.0169067-0.9820557,0.0361328-1.4716797,0.0576172  c-0.440918,0.0194092-0.878418,0.0408325-1.3085938,0.0644531c-0.5181885,0.0284424-1.0233765,0.0601807-1.5095215,0.095459  c-0.4698486,0.0339966-0.9225464,0.0710449-1.3460083,0.1121216c-0.6016235,0.0582886-1.144165,0.1243896-1.6124878,0.1984253  c-0.3783569,0.0598145-0.710144,0.1246338-0.9741211,0.1958008c-1.8847656,0.5068359-3.3681641,1.9995117-3.8720703,3.8959961  c-0.0782471,0.2943115-0.1470947,0.6234131-0.2116089,0.9660034c-0.0975952,0.5185547-0.1809692,1.0792847-0.2508545,1.664917  c-0.053772,0.4505005-0.0997925,0.9107056-0.1395264,1.3734131c-0.0441895,0.5145874-0.0807495,1.0259399-0.1103516,1.5244141  c-0.0270996,0.454895-0.0492554,0.8953857-0.0665283,1.3106689c-0.022522,0.5430908-0.0375977,1.0357056-0.0476685,1.461731  c-0.0136108,0.5737305-0.0186157,1.0117798-0.0201416,1.2545166C4.6018677,24.8939209,4.6015625,24.9768066,4.6015625,25  c0,0.0667725,0.0006714,0.5105591,0.0144653,1.1867065c0.0070801,0.3482056,0.0177612,0.7580566,0.0335693,1.2105713  c0.0147095,0.420105,0.0339966,0.8773804,0.059082,1.3549805c0.0197754,0.37677,0.0442505,0.7670898,0.0720215,1.1622925  c0.0303955,0.4333496,0.0651245,0.8710327,0.1068726,1.3071899c0.0362549,0.3791504,0.0785522,0.7525024,0.1246338,1.1195068  c0.0535889,0.4269409,0.1135254,0.8408813,0.1820679,1.2319946c0.0637817,0.3638306,0.1350708,0.7044067,0.2133179,1.0197754  c0.0142822,0.0574951,0.0268555,0.1209717,0.041626,0.1765137c0.0806885,0.3035278,0.1948242,0.59198,0.3233643,0.8724976  c0.1278076,0.2789307,0.2791138,0.5432739,0.4495239,0.7946777c0.1890869,0.2788086,0.3946533,0.5450439,0.6300659,0.7839355  c0.2051392,0.2081909,0.4300537,0.3950806,0.6659546,0.5683594c0.2768555,0.2034302,0.5744019,0.3778076,0.8872681,0.5267944  c0.2886353,0.1375122,0.5861816,0.258728,0.8999023,0.3442383c0.0054932,0.0014648,0.010498,0.0040283,0.0159912,0.0054932  c0.3082886,0.0831299,0.7054443,0.1578979,1.1669312,0.225647c0.333374,0.0489502,0.703064,0.0938721,1.098877,0.135437  c0.4063721,0.0427246,0.8400269,0.0819702,1.2965088,0.1175537c0.375061,0.0292969,0.7640381,0.0562134,1.1630859,0.0810547  c0.4370728,0.0272827,0.8847656,0.052124,1.3394775,0.0745239c0.3907471,0.0192871,0.7853394,0.0367432,1.1812134,0.0527954  c0.4559937,0.0184937,0.9121704,0.0350342,1.3644409,0.0496216c0.4085083,0.0131836,0.8121338,0.0249023,1.2088623,0.0352783  c0.4743652,0.0123901,0.937439,0.0231323,1.382019,0.0320435c0.4227295,0.0085449,0.8296509,0.015625,1.2128906,0.0214844  c0.5117798,0.0078125,0.9804688,0.0134277,1.3964844,0.0175781c0.5001831,0.0049438,0.9191895,0.0076904,1.2349854,0.0091553  C24.7144775,39.5193481,24.9397583,39.5195313,25,39.5195313c0.0684204,0,0.348877-0.0002441,0.7818604-0.0025635  c0.3303223-0.00177,0.7521362-0.0048828,1.2442627-0.0100708c0.4296875-0.0045166,0.9113159-0.0108032,1.4331665-0.019104  c0.4020996-0.0064697,0.8261719-0.0142212,1.2677002-0.0235596c0.4679565-0.0098877,0.9522095-0.0214233,1.4491577-0.0351563  c0.418335-0.0115967,0.8440552-0.0246582,1.272583-0.0394287c0.4894409-0.0168457,0.9819336-0.0360107,1.4715576-0.0574951  c0.4408569-0.0193481,0.8783569-0.0408325,1.3085327-0.0643921c0.5181274-0.0283813,1.0231934-0.0601807,1.5093994-0.0953369  c0.4699707-0.0339966,0.9226074-0.0709229,1.3463135-0.1119385c0.6009521-0.0581055,1.1435547-0.1240845,1.6119385-0.197876  c0.381897-0.0601807,0.7163086-0.1253662,0.9822388-0.1970825c1.8847656-0.5073242,3.3681641-2.0004883,3.8720703-3.8959961  c0.0789185-0.2967529,0.1483154-0.6286621,0.2131958-0.9744263c0.0974121-0.5185547,0.180603-1.0791016,0.2503052-1.6643677  c0.0536499-0.4506226,0.0994873-0.9108887,0.1391602-1.3735352c0.0441284-0.5146484,0.0805664-1.0259399,0.1101685-1.524231  c0.0269775-0.4550171,0.0491333-0.8952637,0.0663452-1.3104858c0.0224609-0.5432739,0.0375366-1.0359497,0.0475464-1.4616089  c0.0136108-0.574707,0.0185547-1.0128784,0.0200195-1.2532959C45.3981934,25.1032104,45.3984375,25.0227661,45.3984375,25  C45.3984375,24.9329834,45.3978271,24.4870605,45.3839111,23.8070679z M41.7591553,12.9263916  c0.2426147,0.1652222,0.4729614,0.3471069,0.6784668,0.5559082L31.4355469,24.484375l-0.7866821-0.4475708L41.7591553,12.9263916z   M21.4296875,30.0576172V19.9423828L30.3203125,25L21.4296875,30.0576172z M39.8508301,12.1765747  c0.2125244,0.0391235,0.406189,0.0800171,0.5681152,0.1237183c0.1411133,0.0379639,0.2761841,0.0897217,0.411438,0.1408691  L29.7476196,23.5240479l-0.7929688-0.4511719L39.8508301,12.1765747z M37.4909058,11.8884888  c0.3983765,0.0339966,0.7738037,0.0709839,1.1230469,0.1109009l-10.5606079,10.56073l-0.7865601-0.4475098L37.4909058,11.8884888z   M34.9994507,11.7217407c0.4000854,0.0209961,0.7937622,0.0435791,1.1757202,0.0684204l-9.8096313,9.8096313l-0.7930298-0.4511108  L34.9994507,11.7217407z M32.4602051,11.6133423c0.395752,0.0135498,0.7929077,0.0284424,1.1885986,0.0449829l-8.9775391,8.9775391  l-0.786438-0.4473877L32.4602051,11.6133423z M29.8740234,11.5412598c0.3945313,0.008667,0.800415,0.0185547,1.2143555,0.0298462  l-8.1047974,8.1045532l-0.7930298-0.4511719L29.8740234,11.5412598z M27.2698364,11.4973755  c0.3740845,0.0045166,0.7807007,0.0101318,1.2167358,0.0172729l-7.1972656,7.1970825l-0.7863159-0.4473877L27.2698364,11.4973755z   M8.8635864,12.5704956l-2.1641846,2.1641846C7.1470947,13.7810669,7.913147,13.0139771,8.8635864,12.5704956z   M6.1644897,16.6836548l4.6068115-4.6068115c0.4141235-0.0580444,0.8812866-0.1106567,1.3918457-0.157959l-6.1987915,6.1987915  C6.0216064,17.6176147,6.0877075,17.1343994,6.1644897,16.6836548z M5.8154907,19.680603l7.8816528-7.8816528  c0.4283447-0.0285034,0.8704224-0.0546265,1.3223877-0.0782471l-9.2930908,9.2930908  C5.7510376,20.578186,5.7802124,20.131958,5.8154907,19.680603z M5.6571045,22.4971924l10.8450317-10.8450317  c0.4272461-0.017395,0.8557129-0.0331421,1.2815552-0.0471802L5.6190186,23.7696533  C5.6270752,23.4035034,5.6394653,22.9727783,5.6571045,22.4971924z M5.6027832,25.1999512L19.2402954,11.562439  c0.4365845-0.0112305,0.8623047-0.0209961,1.2734985-0.0293579L5.6235962,26.4232788  C5.6098022,25.8575439,5.6045532,25.4302368,5.6027832,25.1999512z M5.7255249,28.9697266  c-0.0229492-0.4082642-0.0422363-0.8033447-0.0574341-1.1768799l16.2851563-16.2851563  c0.4576416-0.0068359,0.8748779-0.0118408,1.2496338-0.015625L5.7255249,28.9697266z M5.8134766,30.2958374l18.8140259-18.8143311  C24.8544312,11.4805908,24.987793,11.4804688,25,11.4804688c0.0194092,0,0.3364868,0.0002441,0.8689575,0.0037231  L5.916687,31.4367065C5.8780518,31.0591431,5.8432007,30.6777954,5.8134766,30.2958374z M6.0691528,32.6983643  l14.3605347-14.3607178v1.2336426L6.2457886,33.7548218C6.180542,33.4234009,6.1218262,33.0692749,6.0691528,32.6983643z   M6.9415283,35.7172852c-0.1626587-0.2634888-0.2962036-0.5452881-0.40271-0.8414307l13.8908691-13.8905029v1.2441406  L6.9415283,35.7172852z M8.2366943,37.0704346c-0.2424316-0.1655273-0.47229-0.3477783-0.6775513-0.5567627l12.8705444-12.8701782  v1.2339478L8.2366943,37.0704346z M10.1430664,37.8222656C9.9331055,37.7834473,9.741394,37.742981,9.5810547,37.699707  c-0.1429443-0.0384521-0.2798462-0.0908203-0.416748-0.1428223l11.2653809-11.2653809v1.2441406L10.1430664,37.8222656z   M12.5027466,38.1109619c-0.3984985-0.0340576-0.7740479-0.0710449-1.12323-0.111084l9.0501709-9.0501709v1.2341919  L12.5027466,38.1109619z M14.9939575,38.2778931c-0.4000244-0.0209961-0.7937012-0.0436401-1.1755981-0.0684814l6.6113281-6.6114502  v0.1793823l2.4700317-1.4053345L14.9939575,38.2778931z M17.5335083,38.3864136  c-0.3959351-0.0136108-0.7932129-0.0284424-1.1889648-0.0449829l9.8356323-9.8358154l2.8630371-1.6289063L17.5335083,38.3864136z   M20.1195679,38.4585571c-0.3945313-0.008667-0.800354-0.0185547-1.2142944-0.0298462l13.418396-13.418396L32.3417969,25  l-0.0050049-0.0028076l10.7189331-10.7189331c0.1628418,0.2632446,0.296875,0.5445557,0.4036865,0.8404541L20.1195679,38.4585571z   M22.723999,38.5025635c-0.3743286-0.0045166-0.7809448-0.0100708-1.2171021-0.0172729l22.2462158-22.2462158  c0.0654907,0.331604,0.1241455,0.6862183,0.1769409,1.0574341L22.723999,38.5025635z M25.366272,38.5184937  C25.1428223,38.5194092,25.012085,38.5195313,25,38.5195313c-0.0194702,0-0.3391724-0.0002441-0.8751221-0.0037842  l19.9578857-19.9578857c0.0387573,0.3775024,0.0735474,0.7589111,0.1033325,1.1408081L25.366272,38.5184937z M28.0406494,38.4923706  c-0.4578857,0.0067749-0.8751221,0.0118408-1.2498169,0.015625l17.4833374-17.4833374  c0.0229492,0.407959,0.0422974,0.8030396,0.0574951,1.1764526L28.0406494,38.4923706z M41.1231079,37.4359741l2.1838989-2.1838989  C42.8581543,36.2160645,42.0841064,36.9912109,41.1231079,37.4359741z M43.8370361,33.3079834l-4.6162109,4.6162109  c-0.4143677,0.0578613-0.8815308,0.1104126-1.3919678,0.1575928l6.2077637-6.2077637  C43.9795532,32.3738403,43.9135742,32.8571777,43.8370361,33.3079834z M44.1851807,30.3114014l-7.8901978,7.8901978  c-0.4283447,0.0284424-0.8703613,0.0545654-1.3222656,0.078125l9.3012695-9.3012695  C44.2494507,29.4139404,44.220459,29.8599854,44.1851807,30.3114014z M44.3432007,27.4951782L33.4902344,38.3481445  c-0.4267578,0.017395-0.8548584,0.03302-1.2802124,0.0470581L44.3811035,26.223938  C44.3730469,26.5894775,44.3607178,27.0198975,44.3432007,27.4951782z M30.75354,38.4376831  c-0.4365845,0.0112305-0.8623047,0.0209961-1.2734985,0.0293579l14.8962402-14.8964233  c0.0137329,0.5635986,0.019104,0.9904785,0.020874,1.2232056L30.75354,38.4376831z"/></svg>